<svg width="21" height="26" viewBox="0 0 21 26" fill="none" xmlns="http://www.w3.org/2000/svg">
<path fill-rule="evenodd" clip-rule="evenodd" d="M2.99646 0.103608C2.81495 0.168748 2.58719 0.337592 2.34327 0.587797C1.17938 1.7817 0.40928 4.76327 0.0757501 9.36688C-0.02525 10.7605 -0.02525 15.232 0.0757501 16.6256C0.409342 21.2295 1.17975 24.2122 2.34327 25.4042C2.97788 26.0542 2.10195 25.9988 11.7409 25.9988C18.7062 25.9988 20.1885 25.984 20.3559 25.9127C21.1081 25.5924 21.2329 24.3367 20.5632 23.8278C20.3886 23.6951 20.3831 23.695 13.4418 23.6634L6.49524 23.6318L6.20289 23.4838C5.86756 23.3139 5.50282 22.9298 5.37067 22.6075C5.24887 22.3104 5.25543 21.6652 5.38362 21.3387C5.52549 20.9773 6.02219 20.5337 6.41963 20.4134C6.69129 20.3312 7.59119 20.3181 12.9859 20.3181C17.6365 20.3181 19.3004 20.2989 19.4832 20.243C20.0627 20.066 20.5959 19.3298 20.8352 18.3762C20.9502 17.9178 20.9548 17.6029 20.9548 10.2537C20.9548 1.83541 20.9736 2.26463 20.5706 1.49375C20.2041 0.792998 19.5006 0.229784 18.7803 0.0605611C18.6047 0.0192811 15.817 -0.00205333 10.8919 0.000155845C4.10529 0.00324869 3.24478 0.0145471 2.99646 0.103608ZM12.1998 3.24342C12.8306 3.51205 13.2297 4.11812 13.2296 4.80751C13.2295 5.30982 13.0482 5.7165 12.6754 6.05097C11.9728 6.68134 10.9622 6.62661 10.3399 5.92447C10.0273 5.57189 9.91308 5.27775 9.91172 4.82228C9.90881 3.85826 10.6055 3.14962 11.5563 3.14962C11.7907 3.14962 12.0779 3.19147 12.1998 3.24342ZM12.159 8.00981C12.5295 8.22145 12.7184 8.51698 12.7198 8.88704C12.7204 9.0468 12.5644 10.3931 12.3732 11.8787C12.182 13.3644 12.0433 14.6521 12.065 14.7403C12.0867 14.8285 12.175 14.9725 12.2611 15.0603C12.4014 15.2033 12.456 15.2172 12.7857 15.1929C13.1023 15.1695 13.1845 15.1355 13.3751 14.9488C13.4969 14.8296 13.6495 14.6274 13.7141 14.4995C13.865 14.2012 14.0532 14.0692 14.3271 14.0695C14.8058 14.07 15.1898 14.5341 15.1028 15.007C14.9878 15.6319 14.27 16.4483 13.4808 16.8519L13.0593 17.0674H12.1604C11.2713 17.0674 11.2569 17.0652 10.8523 16.8623C10.1402 16.5052 9.64544 15.7927 9.57868 15.0281C9.55782 14.7887 9.64284 13.9637 9.83382 12.5544C9.99135 11.3914 10.1337 10.3782 10.15 10.3027C10.1826 10.1522 10.2325 10.1756 9.23221 9.87063C8.59351 9.67585 8.29429 9.44653 8.19664 9.0771C8.0778 8.62706 8.29553 8.13441 8.70653 7.92353C8.88233 7.83333 9.11462 7.82127 10.3965 7.83548C11.8523 7.8517 11.8884 7.85523 12.159 8.00981Z" fill="#101010"/>
</svg>
