<svg width="18" height="19" viewBox="0 0 18 19" fill="none" xmlns="http://www.w3.org/2000/svg">
<path fill-rule="evenodd" clip-rule="evenodd" d="M9 0.5C4.03145 0.5 0 4.53145 0 9.5C0 14.4686 4.03145 18.5 9 18.5C13.9588 18.5 18 14.4686 18 9.5C18 4.53145 13.9588 0.5 9 0.5ZM14.9447 4.64859C16.0184 5.95662 16.6627 7.6258 16.6822 9.4317C16.4284 9.3829 13.8904 8.8655 11.333 9.1876C11.2744 9.0607 11.2256 8.9241 11.167 8.7874C11.0108 8.4165 10.8352 8.0358 10.6594 7.6746C13.4902 6.5228 14.7787 4.86334 14.9447 4.64859ZM9 1.82755C10.9523 1.82755 12.7386 2.55966 14.0955 3.76031C13.9588 3.95553 12.7972 5.50759 10.064 6.53253C8.8048 4.21909 7.4089 2.32538 7.1942 2.03254C7.77 1.89588 8.3753 1.82755 9 1.82755ZM5.72996 2.54989C5.93494 2.82321 7.3015 4.72668 8.5803 6.99131C4.98807 7.948 1.81562 7.9284 1.47397 7.9284C1.9718 5.54664 3.58243 3.56507 5.72996 2.54989ZM1.30803 9.5098C1.30803 9.4317 1.30803 9.3536 1.30803 9.2755C1.63991 9.2852 5.36876 9.3341 9.205 8.1822C9.4295 8.6117 9.6345 9.051 9.8297 9.4902C9.7321 9.5195 9.6247 9.5488 9.5271 9.5781C5.56399 10.8568 3.45553 14.3514 3.27983 14.6442C2.05965 13.2874 1.30803 11.4816 1.30803 9.5098ZM9 17.192C7.2234 17.192 5.58352 16.5868 4.28525 15.5716C4.42191 15.2885 5.98371 12.282 10.3178 10.769C10.3373 10.7592 10.3471 10.7592 10.3666 10.7495C11.4501 13.551 11.8894 15.9034 12.0065 16.577C11.0792 16.9772 10.064 17.192 9 17.192ZM13.2852 15.8742C13.2072 15.4056 12.7972 13.1605 11.7917 10.398C14.2028 10.0173 16.3113 10.6421 16.5749 10.73C16.243 12.8677 15.013 14.7126 13.2852 15.8742Z" fill="black"/>
</svg>
