<svg width="19" height="19" viewBox="0 0 19 19" fill="none" xmlns="http://www.w3.org/2000/svg">
<path fill-rule="evenodd" clip-rule="evenodd" d="M13.5 0.742676H5.5C2.73858 0.742676 0.5 2.98126 0.5 5.74268V13.7427C0.5 16.5041 2.73858 18.7427 5.5 18.7427H13.5C16.2614 18.7427 18.5 16.5041 18.5 13.7427V5.74268C18.5 2.98126 16.2614 0.742676 13.5 0.742676ZM16.75 13.7427C16.7445 15.5353 15.2926 16.9872 13.5 16.9927H5.5C3.70735 16.9872 2.25549 15.5353 2.25 13.7427V5.74268C2.25549 3.95003 3.70735 2.49817 5.5 2.49268H13.5C15.2926 2.49817 16.7445 3.95003 16.75 5.74268V13.7427ZM14.25 5.99268C14.8023 5.99268 15.25 5.54496 15.25 4.99268C15.25 4.4404 14.8023 3.99268 14.25 3.99268C13.6977 3.99268 13.25 4.4404 13.25 4.99268C13.25 5.54496 13.6977 5.99268 14.25 5.99268ZM9.5 5.24268C7.01472 5.24268 5 7.2574 5 9.74268C5 12.228 7.01472 14.2427 9.5 14.2427C11.9853 14.2427 14 12.228 14 9.74268C14.0027 8.54838 13.5294 7.40225 12.6849 6.55776C11.8404 5.71327 10.6943 5.24002 9.5 5.24268ZM6.75 9.74268C6.75 11.2615 7.9812 12.4927 9.5 12.4927C11.0188 12.4927 12.25 11.2615 12.25 9.74268C12.25 8.22388 11.0188 6.99268 9.5 6.99268C7.9812 6.99268 6.75 8.22388 6.75 9.74268Z" fill="#101010"/>
</svg>
