<svg width="19" height="19" viewBox="0 0 19 19" fill="none" xmlns="http://www.w3.org/2000/svg">
<path fill-rule="evenodd" clip-rule="evenodd" d="M2 0.742676C1.17157 0.742676 0.5 1.41425 0.5 2.24268V17.2427C0.5 18.0711 1.17157 18.7427 2 18.7427H17C17.8284 18.7427 18.5 18.0711 18.5 17.2427V2.24268C18.5 1.41425 17.8284 0.742676 17 0.742676H2ZM6.02076 4.7454C6.02639 5.70165 5.31061 6.29087 4.46123 6.28665C3.66107 6.28243 2.96357 5.6454 2.96779 4.74681C2.97201 3.90165 3.63998 3.22243 4.50764 3.24212C5.38795 3.26181 6.02639 3.90728 6.02076 4.7454ZM9.7797 7.50444H7.25971H7.2583V16.0643H9.9217V15.8646C9.9217 15.4847 9.9214 15.1047 9.9211 14.7246C9.9203 13.7108 9.9194 12.6959 9.9246 11.6824C9.926 11.4363 9.9372 11.1804 10.0005 10.9455C10.2381 10.068 11.0271 9.50128 11.9074 9.64058C12.4727 9.72908 12.8467 10.0568 13.0042 10.5898C13.1013 10.923 13.1449 11.2816 13.1491 11.629C13.1605 12.6766 13.1589 13.7242 13.1573 14.7719C13.1567 15.1417 13.1561 15.5117 13.1561 15.8815V16.0629H15.828V15.8576C15.828 15.4056 15.8278 14.9537 15.8275 14.5018C15.827 13.3723 15.8264 12.2428 15.8294 11.1129C15.8308 10.6024 15.776 10.099 15.6508 9.60538C15.4638 8.87128 15.0771 8.26378 14.4485 7.82508C14.0027 7.51287 13.5133 7.31178 12.9663 7.28928C12.904 7.28669 12.8412 7.2833 12.7781 7.27989C12.4984 7.26477 12.2141 7.24941 11.9467 7.30334C11.1817 7.45662 10.5096 7.80678 10.0019 8.42408C9.9429 8.49488 9.8852 8.56678 9.7991 8.67408L9.7797 8.69838V7.50444ZM3.18164 16.0671H5.83242V7.51001H3.18164V16.0671Z" fill="#101010"/>
</svg>
