<svg width="21" height="15" viewBox="0 0 21 15" fill="none" xmlns="http://www.w3.org/2000/svg">
<path d="M20.093 2.70301C19.9791 2.28041 19.7565 1.89501 19.4474 1.58518C19.1383 1.27534 18.7534 1.05187 18.331 0.937007C16.765 0.507007 10.5 0.500008 10.5 0.500008C10.5 0.500008 4.23602 0.493007 2.66902 0.904007C2.24695 1.02415 1.86285 1.25078 1.55359 1.56214C1.24433 1.8735 1.02031 2.25913 0.903025 2.68201C0.490025 4.24801 0.486024 7.49601 0.486024 7.49601C0.486024 7.49601 0.482024 10.76 0.892024 12.31C1.12202 13.167 1.79702 13.844 2.65502 14.075C4.23702 14.505 10.485 14.512 10.485 14.512C10.485 14.512 16.75 14.519 18.316 14.109C18.7385 13.9943 19.1238 13.7714 19.4337 13.4622C19.7436 13.153 19.9674 12.7682 20.083 12.346C20.497 10.781 20.5 7.53401 20.5 7.53401C20.5 7.53401 20.52 4.26901 20.093 2.70301ZM8.49603 10.505L8.50103 4.50501L13.708 7.51001L8.49603 10.505Z" fill="#101010"/>
</svg>
